<mxfile host="Electron" agent="Mozilla/5.0 (Windows NT 10.0; Win64; x64) AppleWebKit/537.36 (KHTML, like Gecko) draw.io/24.7.5 Chrome/126.0.6478.183 Electron/31.3.0 Safari/537.36" version="24.7.5">
  <diagram name="Page-1" id="aIwbgeriNETQGzJU4w5n">
    <mxGraphModel dx="735" dy="429" grid="1" gridSize="10" guides="1" tooltips="1" connect="1" arrows="1" fold="1" page="1" pageScale="1" pageWidth="850" pageHeight="1100" math="0" shadow="0">
      <root>
        <mxCell id="0" />
        <mxCell id="1" parent="0" />
        <mxCell id="rECE7p0DnKrGc31qM2WY-22" style="edgeStyle=orthogonalEdgeStyle;rounded=0;orthogonalLoop=1;jettySize=auto;html=1;exitX=0.25;exitY=1;exitDx=0;exitDy=0;entryX=0.5;entryY=0;entryDx=0;entryDy=0;" parent="1" source="rECE7p0DnKrGc31qM2WY-14" target="rECE7p0DnKrGc31qM2WY-19" edge="1">
          <mxGeometry relative="1" as="geometry" />
        </mxCell>
        <mxCell id="oh2pSakRmEjCiN489GTW-4" value="!user" style="edgeLabel;html=1;align=center;verticalAlign=middle;resizable=0;points=[];" vertex="1" connectable="0" parent="rECE7p0DnKrGc31qM2WY-22">
          <mxGeometry x="0.0177" relative="1" as="geometry">
            <mxPoint as="offset" />
          </mxGeometry>
        </mxCell>
        <mxCell id="rECE7p0DnKrGc31qM2WY-29" style="edgeStyle=orthogonalEdgeStyle;rounded=0;orthogonalLoop=1;jettySize=auto;html=1;exitX=0.5;exitY=1;exitDx=0;exitDy=0;entryX=0.5;entryY=0;entryDx=0;entryDy=0;" parent="1" source="rECE7p0DnKrGc31qM2WY-14" target="rECE7p0DnKrGc31qM2WY-20" edge="1">
          <mxGeometry relative="1" as="geometry" />
        </mxCell>
        <mxCell id="oh2pSakRmEjCiN489GTW-5" value="user&lt;div&gt;activeMenu&lt;/div&gt;&lt;div&gt;setActiveMenu&lt;/div&gt;" style="edgeLabel;html=1;align=center;verticalAlign=middle;resizable=0;points=[];" vertex="1" connectable="0" parent="rECE7p0DnKrGc31qM2WY-29">
          <mxGeometry x="-0.0224" y="-1" relative="1" as="geometry">
            <mxPoint as="offset" />
          </mxGeometry>
        </mxCell>
        <mxCell id="oh2pSakRmEjCiN489GTW-10" style="edgeStyle=orthogonalEdgeStyle;rounded=0;orthogonalLoop=1;jettySize=auto;html=1;exitX=0.75;exitY=1;exitDx=0;exitDy=0;entryX=0.5;entryY=0;entryDx=0;entryDy=0;" edge="1" parent="1" source="rECE7p0DnKrGc31qM2WY-14" target="oh2pSakRmEjCiN489GTW-7">
          <mxGeometry relative="1" as="geometry" />
        </mxCell>
        <mxCell id="oh2pSakRmEjCiN489GTW-11" value="activeMenu == chat" style="edgeLabel;html=1;align=center;verticalAlign=middle;resizable=0;points=[];" vertex="1" connectable="0" parent="oh2pSakRmEjCiN489GTW-10">
          <mxGeometry x="-0.002" y="-1" relative="1" as="geometry">
            <mxPoint as="offset" />
          </mxGeometry>
        </mxCell>
        <mxCell id="rECE7p0DnKrGc31qM2WY-14" value="App" style="rounded=0;whiteSpace=wrap;html=1;align=center;" parent="1" vertex="1">
          <mxGeometry x="175" y="150" width="160" height="190" as="geometry" />
        </mxCell>
        <mxCell id="rECE7p0DnKrGc31qM2WY-19" value="Login Page" style="rounded=0;whiteSpace=wrap;html=1;" parent="1" vertex="1">
          <mxGeometry x="35" y="440" width="120" height="60" as="geometry" />
        </mxCell>
        <mxCell id="rECE7p0DnKrGc31qM2WY-20" value="SideBar" style="rounded=0;whiteSpace=wrap;html=1;" parent="1" vertex="1">
          <mxGeometry x="195" y="440" width="120" height="60" as="geometry" />
        </mxCell>
        <mxCell id="rECE7p0DnKrGc31qM2WY-38" style="edgeStyle=orthogonalEdgeStyle;rounded=0;orthogonalLoop=1;jettySize=auto;html=1;exitX=0.5;exitY=1;exitDx=0;exitDy=0;entryX=0.5;entryY=0;entryDx=0;entryDy=0;" parent="1" source="rECE7p0DnKrGc31qM2WY-21" target="rECE7p0DnKrGc31qM2WY-35" edge="1">
          <mxGeometry relative="1" as="geometry" />
        </mxCell>
        <mxCell id="rECE7p0DnKrGc31qM2WY-21" value="ChatArea" style="rounded=0;whiteSpace=wrap;html=1;" parent="1" vertex="1">
          <mxGeometry x="440" y="560" width="120" height="60" as="geometry" />
        </mxCell>
        <mxCell id="rECE7p0DnKrGc31qM2WY-37" style="edgeStyle=orthogonalEdgeStyle;rounded=0;orthogonalLoop=1;jettySize=auto;html=1;exitX=0.5;exitY=1;exitDx=0;exitDy=0;entryX=0.5;entryY=0;entryDx=0;entryDy=0;" parent="1" source="rECE7p0DnKrGc31qM2WY-30" target="rECE7p0DnKrGc31qM2WY-36" edge="1">
          <mxGeometry relative="1" as="geometry" />
        </mxCell>
        <mxCell id="rECE7p0DnKrGc31qM2WY-30" value="ContactMenu" style="rounded=0;whiteSpace=wrap;html=1;" parent="1" vertex="1">
          <mxGeometry x="280" y="560" width="120" height="60" as="geometry" />
        </mxCell>
        <mxCell id="rECE7p0DnKrGc31qM2WY-35" value="Message" style="rounded=0;whiteSpace=wrap;html=1;" parent="1" vertex="1">
          <mxGeometry x="440" y="640" width="120" height="60" as="geometry" />
        </mxCell>
        <mxCell id="rECE7p0DnKrGc31qM2WY-36" value="Contact" style="rounded=0;whiteSpace=wrap;html=1;" parent="1" vertex="1">
          <mxGeometry x="280" y="640" width="120" height="60" as="geometry" />
        </mxCell>
        <mxCell id="oh2pSakRmEjCiN489GTW-1" value="Main" style="rounded=0;whiteSpace=wrap;html=1;" vertex="1" parent="1">
          <mxGeometry x="175" y="40" width="160" height="60" as="geometry" />
        </mxCell>
        <mxCell id="oh2pSakRmEjCiN489GTW-2" value="user&lt;div&gt;activeMenu&lt;/div&gt;" style="text;html=1;align=center;verticalAlign=middle;whiteSpace=wrap;rounded=0;" vertex="1" parent="1">
          <mxGeometry x="225" y="300" width="60" height="30" as="geometry" />
        </mxCell>
        <mxCell id="oh2pSakRmEjCiN489GTW-8" style="edgeStyle=orthogonalEdgeStyle;rounded=0;orthogonalLoop=1;jettySize=auto;html=1;exitX=0.75;exitY=1;exitDx=0;exitDy=0;entryX=0.5;entryY=0;entryDx=0;entryDy=0;" edge="1" parent="1" source="oh2pSakRmEjCiN489GTW-7" target="rECE7p0DnKrGc31qM2WY-21">
          <mxGeometry relative="1" as="geometry" />
        </mxCell>
        <mxCell id="oh2pSakRmEjCiN489GTW-9" style="edgeStyle=orthogonalEdgeStyle;rounded=0;orthogonalLoop=1;jettySize=auto;html=1;exitX=0.25;exitY=1;exitDx=0;exitDy=0;entryX=0.5;entryY=0;entryDx=0;entryDy=0;" edge="1" parent="1" source="oh2pSakRmEjCiN489GTW-7" target="rECE7p0DnKrGc31qM2WY-30">
          <mxGeometry relative="1" as="geometry" />
        </mxCell>
        <mxCell id="oh2pSakRmEjCiN489GTW-7" value="ChatBox" style="rounded=0;whiteSpace=wrap;html=1;" vertex="1" parent="1">
          <mxGeometry x="355" y="440" width="120" height="60" as="geometry" />
        </mxCell>
      </root>
    </mxGraphModel>
  </diagram>
</mxfile>
